<?xml version="1.0" standalone="no"?>
<!DOCTYPE svg PUBLIC "-//W3C//DTD SVG 20010904//EN"
 "http://www.w3.org/TR/2001/REC-SVG-20010904/DTD/svg10.dtd">
<svg version="1.0" xmlns="http://www.w3.org/2000/svg"
 width="824.000000pt" height="824.000000pt" viewBox="0 0 824.000000 824.000000"
 preserveAspectRatio="xMidYMid meet">
<metadata>
Created by potrace 1.14, written by Peter Selinger 2001-2017
</metadata>
<g transform="translate(0.000000,824.000000) scale(0.100000,-0.100000)"
fill="#000000" stroke="none">
<path d="M5749 7791 c-37 -36 -171 -167 -299 -291 -127 -124 -283 -274 -345
-335 -62 -60 -126 -122 -141 -136 -16 -15 -36 -35 -45 -45 -9 -11 -113 -112
-230 -225 -411 -397 -408 -394 -413 -430 -1 -4 -14 -43 -31 -87 l-30 -80 -56
-4 c-31 -2 -70 -1 -85 2 -16 3 -46 3 -66 -1 -21 -3 -38 -3 -38 2 0 4 -12 4
-27 0 -16 -4 -40 -4 -55 0 -15 4 -29 5 -31 2 -3 -2 -22 -4 -43 -3 -61 1 -66 1
-121 -1 -29 -2 -56 0 -59 4 -3 3 -16 2 -29 -3 -13 -5 -25 -6 -28 -4 -8 9 -107
9 -107 1 0 -5 -5 -5 -10 -2 -6 4 -41 6 -78 5 -37 -1 -73 -1 -79 -1 -28 2 -40
2 -104 -1 l-66 -3 -68 -79 c-37 -44 -72 -85 -78 -91 -15 -15 -84 -96 -168
-195 -35 -41 -69 -79 -75 -85 -5 -5 -35 -39 -65 -75 -30 -36 -68 -81 -86 -100
-34 -38 -51 -57 -100 -117 -17 -21 -49 -58 -71 -83 -22 -25 -39 -46 -38 -47 1
-2 49 -3 107 -2 57 0 122 -1 144 -2 22 -1 47 -1 55 -1 12 1 161 1 345 0 22 0
45 1 50 2 6 1 14 2 18 1 7 -1 162 -1 227 0 8 1 60 1 115 0 55 0 109 0 120 0
17 0 140 0 170 0 91 0 156 -4 159 -10 3 -4 -2 -21 -10 -37 -9 -16 -15 -30 -14
-32 2 -3 -25 -81 -40 -117 -5 -11 -28 -74 -51 -140 -23 -66 -57 -163 -76 -215
-19 -52 -35 -100 -37 -107 -1 -7 -5 -16 -9 -19 -4 -4 -7 -14 -7 -22 0 -8 -6
-28 -14 -45 -19 -43 -28 -69 -32 -87 -2 -8 -7 -23 -12 -35 -11 -23 -45 -115
-48 -130 -1 -5 -16 -48 -34 -95 -17 -47 -36 -98 -42 -115 -5 -16 -12 -37 -15
-45 -3 -8 -7 -19 -9 -25 -1 -5 -7 -23 -14 -40 -6 -16 -11 -31 -11 -33 1 -1 -6
-19 -15 -40 -15 -35 -56 -148 -74 -202 -5 -14 -27 -77 -50 -140 -23 -63 -43
-119 -44 -125 -1 -5 -8 -20 -14 -32 -7 -13 -10 -23 -7 -23 2 0 -6 -25 -20 -55
-13 -31 -23 -59 -22 -63 3 -9 -208 -19 -255 -11 -21 4 -38 3 -38 -2 0 -4 -13
-4 -29 1 -16 4 -31 6 -34 4 -2 -2 -26 -4 -53 -4 -27 0 -58 0 -69 0 -11 0 -41
0 -68 0 -42 0 -51 -4 -80 -37 -17 -20 -37 -41 -42 -47 -6 -6 -35 -40 -65 -76
-30 -36 -58 -67 -61 -70 -3 -3 -48 -54 -99 -115 -52 -60 -99 -115 -105 -121
-5 -7 -30 -35 -55 -64 -44 -51 -105 -121 -145 -166 -11 -12 -32 -37 -47 -55
-14 -19 -44 -54 -67 -79 -22 -24 -38 -46 -36 -48 6 -7 495 -7 495 0 0 4 6 5
14 2 23 -9 466 -10 466 -1 0 4 8 3 19 -2 10 -6 21 -7 25 -4 3 3 6 3 6 -1 0 -6
-69 -202 -136 -386 -3 -8 -6 -17 -6 -20 0 -3 -9 -27 -20 -55 -11 -27 -26 -70
-34 -95 -8 -25 -19 -54 -24 -65 -5 -11 -34 -92 -65 -180 -31 -88 -60 -169 -65
-180 -5 -11 -15 -40 -23 -65 -19 -56 -105 -300 -114 -320 -3 -8 -7 -19 -9 -25
-1 -5 -10 -30 -19 -55 -9 -25 -34 -94 -55 -155 -21 -60 -42 -119 -46 -130 -9
-26 1503 1492 1522 1527 8 16 11 28 7 28 -5 0 -3 4 2 8 6 4 21 39 34 77 31 91
37 98 83 93 21 -2 38 0 38 4 0 4 6 5 14 2 22 -8 466 -10 466 -2 0 4 7 5 14 2
24 -9 146 -10 146 -1 0 5 5 5 11 2 6 -4 54 -7 107 -7 l97 1 48 53 c27 29 63
70 80 92 18 21 39 46 48 55 8 9 42 48 75 86 33 39 71 83 84 99 14 16 37 42 51
57 15 15 33 37 41 48 9 12 30 38 49 59 19 20 74 84 123 142 49 58 98 112 108
122 10 9 18 19 18 23 0 4 10 16 22 27 21 18 20 18 -100 17 -67 0 -126 2 -132
6 -5 3 -10 2 -10 -4 0 -6 -11 -6 -29 -1 -16 4 -31 6 -34 4 -3 -4 -28 -4 -122
-3 -11 0 -77 -1 -148 -1 -70 -1 -132 2 -137 5 -6 3 -10 2 -10 -4 0 -6 -11 -6
-29 -1 -16 4 -31 6 -34 4 -3 -4 -28 -4 -122 -3 -49 0 -281 0 -292 0 -23 -1
-47 -2 -84 -1 -19 1 -39 0 -45 -1 -41 -8 -43 -1 -12 84 16 45 33 91 38 102 4
11 13 34 18 50 32 93 105 293 113 310 5 11 20 54 34 95 28 80 62 172 75 205 5
11 18 47 29 80 11 33 44 123 72 200 28 77 68 190 90 250 21 61 43 119 49 130
5 11 22 58 38 105 52 148 94 264 108 297 8 17 14 37 14 45 0 8 4 18 10 24 5 5
11 21 13 34 4 26 12 27 137 31 29 1 226 0 271 -1 50 -1 52 1 164 135 22 26 45
53 52 60 7 7 44 50 83 95 39 45 76 88 83 95 7 7 21 23 32 36 40 49 130 154
135 159 3 3 37 41 74 85 38 44 73 82 78 83 4 2 8 8 8 13 0 5 20 30 45 56 25
25 45 50 45 54 0 5 -16 7 -36 5 -19 -1 -37 1 -40 5 -3 5 -15 4 -28 -1 -12 -4
-29 -5 -36 0 -7 4 -25 4 -40 0 -15 -4 -33 -4 -41 1 -8 4 -21 4 -28 -1 -8 -4
-25 -5 -40 -1 -14 4 -37 5 -51 1 -14 -4 -37 -3 -52 1 -14 4 -29 5 -32 2 -4 -4
-37 -5 -126 -2 -8 0 -28 0 -45 -1 -16 0 -45 1 -63 3 -18 2 -35 0 -38 -4 -2 -4
-20 -3 -39 1 -19 4 -35 5 -35 1 0 -4 -12 -6 -27 -5 -16 1 -38 3 -50 3 -16 1
-23 7 -23 21 0 11 5 20 10 20 6 0 9 3 8 8 -4 12 24 102 33 108 5 3 9 11 9 19
0 8 5 26 12 42 6 15 12 33 13 38 3 9 67 186 82 225 4 8 7 17 8 20 6 27 29 87
35 95 5 6 9 15 9 20 0 10 35 110 51 150 14 32 72 189 74 200 2 6 6 17 9 25 3
8 17 49 32 90 14 41 30 84 35 95 9 20 37 97 45 125 2 8 23 65 45 125 23 61 46
124 51 140 5 17 13 39 18 50 23 53 30 75 23 78 -4 2 -37 -26 -73 -62z"/>
<path d="M1026 6163 c-3 -4 -34 -6 -69 -5 l-62 1 2 -1897 c0 -1043 2 -1901 2
-1905 1 -5 6 -5 13 -1 6 4 30 6 52 5 128 -6 236 -5 236 2 0 5 5 5 12 1 6 -4
46 -7 87 -6 85 2 71 -8 186 128 28 32 59 68 70 79 11 12 38 44 60 71 22 27 55
64 72 82 18 18 33 37 33 42 0 4 4 10 8 12 5 1 53 55 108 118 54 63 103 120
109 126 5 6 29 33 52 60 23 27 54 63 68 79 14 17 35 43 47 58 l20 28 -73 -1
c-194 -2 -279 0 -280 7 0 5 -1 463 -2 1018 l0 1010 39 2 c21 1 76 2 121 2 l81
1 54 67 c29 37 60 75 68 83 9 9 29 33 45 55 17 22 37 46 45 55 8 9 31 36 50
60 19 24 79 98 134 164 54 67 110 136 125 154 14 18 35 43 46 55 11 13 36 43
55 67 19 23 47 57 62 74 35 39 35 44 -3 42 -16 -1 -32 1 -35 5 -2 4 -17 4 -33
-1 -16 -4 -32 -6 -34 -4 -9 9 -87 10 -87 1 0 -4 -5 -5 -10 -2 -6 4 -41 6 -78
5 -37 -1 -73 -1 -79 -1 -18 1 -34 1 -98 1 -55 0 -68 0 -115 0 -14 0 -37 1 -52
3 -14 2 -32 1 -38 -3 -7 -4 -27 -4 -46 0 -19 4 -34 5 -34 1 0 -5 -20 -5 -45
-1 -25 4 -45 3 -45 -2 0 -5 -5 -6 -10 -3 -6 4 -41 6 -78 5 -37 -1 -73 -1 -79
-1 -24 2 -117 2 -213 1 -14 0 -34 1 -45 4 -11 2 -29 0 -40 -4 -11 -4 -29 -4
-41 0 -11 5 -26 5 -33 1 -6 -4 -32 -5 -56 -1 -25 4 -45 4 -45 0 0 -4 -17 -4
-37 -1 -21 4 -59 4 -85 1 -26 -4 -53 -3 -61 2 -8 4 -17 5 -21 1z"/>
<path d="M6626 6162 c-3 -3 -24 -5 -46 -4 -38 2 -42 -1 -112 -86 -40 -48 -77
-92 -83 -98 -5 -6 -23 -28 -40 -49 -16 -21 -35 -43 -40 -49 -6 -6 -51 -60
-100 -121 -49 -60 -92 -112 -95 -115 -3 -3 -21 -25 -40 -50 -19 -25 -45 -55
-57 -66 -13 -12 -23 -26 -23 -32 0 -6 -4 -12 -9 -14 -11 -4 -190 -221 -191
-230 0 -10 51 -14 81 -7 15 4 31 4 37 0 5 -3 49 -4 96 -1 108 6 131 1 133 -30
2 -32 3 -130 2 -150 -1 -8 -1 -62 0 -120 0 -58 1 -144 0 -193 0 -48 2 -91 5
-95 2 -4 1 -14 -4 -22 -5 -8 -5 -22 1 -32 5 -10 6 -18 1 -18 -9 0 -8 -53 2
-69 4 -5 3 -12 -1 -14 -8 -5 -7 -142 1 -163 2 -6 0 -17 -4 -24 -5 -8 -4 -22 1
-32 5 -10 6 -18 1 -18 -9 0 -8 -53 2 -69 4 -5 2 -12 -3 -16 -5 -3 -8 -15 -5
-28 3 -20 5 -90 3 -127 -1 -8 -1 -62 0 -120 0 -58 0 -112 0 -120 -1 -8 -1 -62
0 -120 1 -58 1 -139 0 -180 0 -41 0 -79 1 -85 1 -5 1 -14 0 -20 -1 -5 -3 -37
-4 -70 l-1 -60 -50 -2 c-27 -2 -83 -3 -122 -3 -40 1 -73 -3 -73 -8 0 -5 -15
-24 -33 -43 -28 -29 -80 -89 -237 -273 -14 -16 -36 -41 -49 -55 -13 -14 -40
-46 -60 -70 -20 -24 -49 -59 -66 -77 -16 -18 -44 -49 -62 -71 -36 -43 -48 -57
-118 -138 -27 -32 -65 -74 -82 -94 -18 -20 -32 -40 -30 -44 3 -11 527 -15 527
-5 0 4 7 5 14 2 22 -9 146 -10 146 -2 0 4 6 5 14 2 22 -8 466 -10 466 -2 0 4
7 5 15 2 21 -9 105 -10 105 -2 0 3 8 4 18 2 32 -8 142 -9 142 -2 0 4 6 5 14 2
23 -9 146 -10 146 -1 0 5 5 5 10 2 14 -9 225 -9 239 -1 8 5 11 526 11 1897 0
1572 -2 1890 -13 1895 -20 7 -177 10 -177 3 0 -4 -17 -3 -37 0 -21 4 -54 4
-73 1 -19 -3 -47 -3 -62 1 -14 4 -29 5 -32 1z"/>
</g>
</svg>
